<?xml version="1.0" encoding="UTF-8" standalone="no"?>
<svg width="350px" height="350px" viewBox="0 0 350 350" version="1.1" xmlns="http://www.w3.org/2000/svg" xmlns:xlink="http://www.w3.org/1999/xlink" xmlns:sketch="http://www.bohemiancoding.com/sketch/ns">
    <title>safe</title>
    <description>Created with Sketch (http://www.bohemiancoding.com/sketch)</description>
    <defs>
        <radialGradient cx="0%" cy="0%" fx="0%" fy="0%" r="143.544412%" id="radialGradient-1">
            <stop stop-color="#0070A7" stop-opacity="0.970674403" offset="0%"></stop>
            <stop stop-color="#96F149" offset="100%"></stop>
        </radialGradient>
        <filter x="-50%" y="-50%" width="200%" height="200%" filterUnits="objectBoundingBox" id="filter-2">
            <feMorphology radius="1" in="SourceAlpha" operator="dilate" result="shadowSpreadOuter1"></feMorphology>
            <feOffset dx="2" dy="3" in="shadowSpreadOuter1" result="shadowOffsetOuter1"></feOffset>
            <feGaussianBlur stdDeviation="4" in="shadowOffsetOuter1" result="shadowBlurOuter1"></feGaussianBlur>
            <feColorMatrix values="0 0 0 0 0   0 0 0 0 0   0 0 0 0 0  0 0 0 0.7 0" in="shadowBlurOuter1" type="matrix" result="shadowMatrixOuter1"></feColorMatrix>
            <feMorphology radius="1" in="SourceAlpha" operator="dilate" result="shadowSpreadOuter2"></feMorphology>
            <feOffset dx="0" dy="1" in="shadowSpreadOuter2" result="shadowOffsetOuter2"></feOffset>
            <feGaussianBlur stdDeviation="4" in="shadowOffsetOuter2" result="shadowBlurOuter2"></feGaussianBlur>
            <feColorMatrix values="0 0 0 0 0.831483722   0 0 0 0 0.83130604   0 0 0 0 0.831471682  0 0 0 0.7 0" in="shadowBlurOuter2" type="matrix" result="shadowMatrixOuter2"></feColorMatrix>
            <feMerge>
                <feMergeNode in="shadowMatrixOuter1"></feMergeNode>
                <feMergeNode in="shadowMatrixOuter2"></feMergeNode>
                <feMergeNode in="SourceGraphic"></feMergeNode>
            </feMerge>
        </filter>
    </defs>
    <g id="Page-1" stroke="none" stroke-width="1" fill="none" fill-rule="evenodd" sketch:type="MSPage">
        <path d="M190,246.229122 L190,261 C190,269.284272 183.284272,276 175,276 C166.715728,276 160,269.284272 160,261 L160,246.229122 C156.888183,242.703456 155,238.072233 155,233 C155,227.927767 156.888183,223.296544 160,219.770878 L160,201 C160,192.715728 166.715728,186 175,186 C183.284272,186 190,192.715728 190,201 L190,219.770878 C193.111817,223.296544 195,227.927767 195,233 C195,238.072233 193.111817,242.703456 190,246.229122 Z M235,131 L235,110 C235,76.8629134 208.137087,50 175,50 C141.862913,50 115,76.8629134 115,110 L115,131 L235,131 L235,131 Z M265,131 L265,108 C265,58.2943701 224.70563,18 175,18 C125.29437,18 85,58.2943701 85,108 L85,131 L33.0049239,131 C28.5839265,131 25,134.577628 25,138.994647 L25,323.005353 C25,327.420675 28.5781339,331 33.0049239,331 L316.995076,331 C321.416073,331 325,327.422372 325,323.005353 L325,138.994647 C325,134.579325 321.421866,131 316.995076,131 L265,131 L265,131 Z" id="Rectangle-1" fill="url(#radialGradient-1)" filter="url(#filter-2)" sketch:type="MSShapeGroup"></path>
    </g>
</svg>